<?xml version="1.0" encoding="UTF-8" standalone="no"?>
<svg
   xmlns:dc="http://purl.org/dc/elements/1.1/"
   xmlns:cc="http://creativecommons.org/ns#"
   xmlns:rdf="http://www.w3.org/1999/02/22-rdf-syntax-ns#"
   xmlns:svg="http://www.w3.org/2000/svg"
   xmlns="http://www.w3.org/2000/svg"
   xmlns:sodipodi="http://sodipodi.sourceforge.net/DTD/sodipodi-0.dtd"
   xmlns:inkscape="http://www.inkscape.org/namespaces/inkscape"
   version="1.0"
   width="204.000000pt"
   height="129.000000pt"
   viewBox="0 0 204.000000 129.000000"
   preserveAspectRatio="xMidYMid meet"
   id="svg2"
   inkscape:version="0.91 r13725"
   sodipodi:docname="Evil_HatB.svg">
  <defs
     id="defs12" />
  <sodipodi:namedview
     pagecolor="#ffffff"
     bordercolor="#666666"
     borderopacity="1"
     objecttolerance="10"
     gridtolerance="10"
     guidetolerance="10"
     inkscape:pageopacity="0"
     inkscape:pageshadow="2"
     inkscape:window-width="640"
     inkscape:window-height="480"
     id="namedview10"
     showgrid="false"
     inkscape:zoom="1.5137868"
     inkscape:cx="127.5"
     inkscape:cy="80.625"
     inkscape:window-x="0"
     inkscape:window-y="31"
     inkscape:window-maximized="0"
     inkscape:current-layer="svg2" />
  <metadata
     id="metadata4">
Created by potrace 1.13, written by Peter Selinger 2001-2015
<rdf:RDF>
  <cc:Work
     rdf:about="">
    <dc:format>image/svg+xml</dc:format>
    <dc:type
       rdf:resource="http://purl.org/dc/dcmitype/StillImage" />
    <dc:title></dc:title>
  </cc:Work>
</rdf:RDF>
</metadata>
  <g
     transform="translate(0.000000,129.000000) scale(0.100000,-0.100000)"
     fill="#000000"
     stroke="none"
     id="g6">
    <path
       d="M810 1179 c-103 -12 -158 -26 -207 -55 l-43 -25 0 -269 c0 -195 -3 -270 -11 -270 -22 0 -173 82 -227 123 -106 81 -96 80 -88 12 20 -175 181 -355 396 -441 130 -53 205 -67 370 -68 171 -1 257 13 382 64 108 44 177 89 255 166 86 85 141 186 150 280 l6 59 -34 -28 c-87 -70 -253 -167 -286 -167 -10 0 -13 64 -15 273 l-3 272 -56 28 c-95 48 -378 70 -589 46z m350 -499 c203 -19 285 -49 285 -106 0 -26 -5 -30 -60 -46 -218 -67 -532 -67 -750 -1 -52 16 -60 22 -63 46 -3 21 4 31 30 47 93 57 317 81 558 60z"
       id="path8" />
  </g>
</svg>
