<?xml version="1.0" encoding="UTF-8" standalone="no"?>
<svg
   xmlns:dc="http://purl.org/dc/elements/1.1/"
   xmlns:cc="http://creativecommons.org/ns#"
   xmlns:rdf="http://www.w3.org/1999/02/22-rdf-syntax-ns#"
   xmlns:svg="http://www.w3.org/2000/svg"
   xmlns="http://www.w3.org/2000/svg"
   xmlns:sodipodi="http://sodipodi.sourceforge.net/DTD/sodipodi-0.dtd"
   xmlns:inkscape="http://www.inkscape.org/namespaces/inkscape"
   version="1.0"
   width="175.000000pt"
   height="116.000000pt"
   viewBox="0 0 175.000000 116.000000"
   preserveAspectRatio="xMidYMid meet"
   id="svg2"
   inkscape:version="0.91 r13725"
   sodipodi:docname="Evil-White-Hat.svg">
  <defs
     id="defs12" />
  <sodipodi:namedview
     pagecolor="#ffffff"
     bordercolor="#666666"
     borderopacity="1"
     objecttolerance="10"
     gridtolerance="10"
     guidetolerance="10"
     inkscape:pageopacity="0"
     inkscape:pageshadow="2"
     inkscape:window-width="1280"
     inkscape:window-height="915"
     id="namedview10"
     showgrid="false"
     inkscape:zoom="5.2318905"
     inkscape:cx="109.75727"
     inkscape:cy="72.5"
     inkscape:window-x="0"
     inkscape:window-y="31"
     inkscape:window-maximized="1"
     inkscape:current-layer="g6" />
  <metadata
     id="metadata4">
Created by potrace 1.13, written by Peter Selinger 2001-2015
<rdf:RDF>
  <cc:Work
     rdf:about="">
    <dc:format>image/svg+xml</dc:format>
    <dc:type
       rdf:resource="http://purl.org/dc/dcmitype/StillImage" />
    <dc:title />
  </cc:Work>
</rdf:RDF>
</metadata>
  <g
     transform="translate(0.000000,116.000000) scale(0.100000,-0.100000)"
     fill="#000000"
     stroke="none"
     id="g6">
    <path
       d="M650 1069 c-103 -12 -158 -26 -207 -55 l-43 -25 0 -269 c0 -195 -3 -270 -11 -270 -22 0 -173 82 -227 123 -106 81 -96 80 -88 12 20 -175 182 -355 396 -441 130 -53 205 -67 370 -68 171 -1 257 13 382 64 108 44 177 89 255 166 86 85 141 186 150 280 l6 59 -34 -28 c-87 -70 -253 -167 -286 -167 -10 0 -13 60 -13 264 0 297 4 282 -78 318 -87 39 -385 58 -572 37z m443 -19 c88 -13 153 -33 179 -57 16 -15 18 -37 18 -249 l0 -233 -55 25 c-79 36 -269 58 -450 50 -172 -7 -254 -20 -323 -51 l-52 -24 2 237 3 236 40 23 c100 56 396 76 638 43z m-927 -492 c108 -83 294 -158 464 -189 97 -17 343 -17 440 0 203 36 357 105 524 233 l29 22 -7 -42 c-34 -218 -225 -393 -512 -469 -86 -22 -119 -26 -254 -26 -135 0 -168 4 -252 26 -286 76 -477 249 -513 467 -8 50 -17 52 81 -22z m834 12 c203 -19 285 -49 285 -106 0 -26 -5 -30 -60 -46 -218 -67 -532 -67 -750 -1 -48 15 -61 23 -63 42 -5 34 22 57 96 80 116 36 302 48 492 31z"
       id="path8" />
    <path
       style="opacity:1;fill:#000000;fill-opacity:1;stroke:#000000;stroke-width:0.20114377;stroke-miterlimit:4;stroke-dasharray:none;stroke-dashoffset:2.30000019;stroke-opacity:1"
       d="M 101.25174,98.900923 C 95.288168,98.749041 87.156947,98.129113 81.48943,97.394231 71.289273,96.071625 59.180661,93.190324 54.592989,90.9941 52.675661,90.076231 51.95461,89.305465 51.652676,87.851054 c -0.811449,-3.908728 2.239359,-6.829695 9.898302,-9.477035 16.175642,-5.591168 43.999152,-7.03688 71.142552,-3.696573 16.83189,2.071358 24.87591,4.908644 27.17882,9.586514 0.55131,1.119871 0.61766,1.431475 0.61692,2.897361 -0.001,2.724776 -0.6089,3.304484 -4.95158,4.724712 -12.50024,4.088069 -26.72712,6.371127 -43.29566,6.947867 -5.13982,0.178914 -6.31545,0.186084 -10.99029,0.06702 z"
       id="path3334"
       inkscape:connector-curvature="0"
       transform="matrix(8,0,0,-8,0,1160)" />
  </g>
</svg>
